<svg width="100" height="100" viewBox="0 0 100 100" fill="none" xmlns="http://www.w3.org/2000/svg">
<path d="M97.8493 2.27575C97.8397 2.88127 98.3176 3.37938 98.9102 3.38915C99.5028 3.39891 99.9903 2.91057 99.9999 2.30504C100.009 1.69952 99.5315 1.20144 98.9389 1.19167C98.3367 1.18191 97.8493 1.67022 97.8493 2.27575Z" fill="#E1D1C2"/>
<path d="M88.1759 2.15859C88.1664 2.76411 88.6443 3.26219 89.2369 3.27196C89.8295 3.28173 90.317 2.79341 90.3266 2.18789C90.3361 1.58236 89.8582 1.08425 89.2655 1.07448C88.6634 1.06472 88.1855 1.55306 88.1759 2.15859Z" fill="#E1D1C2"/>
<path d="M78.5031 2.0414C78.4935 2.64693 78.9714 3.145 79.564 3.15477C80.1567 3.16454 80.6441 2.67622 80.6537 2.0707C80.6633 1.46517 80.1853 0.967064 79.5927 0.957297C79.0001 0.947531 78.5126 1.43587 78.5031 2.0414Z" fill="#E1D1C2"/>
<path d="M68.8395 1.92409C68.8299 2.52962 69.3079 3.0277 69.9005 3.03746C70.4931 3.04723 70.9806 2.55892 70.9901 1.95339C70.9997 1.34786 70.5218 0.849754 69.9292 0.839988C69.327 0.830221 68.8395 1.31856 68.8395 1.92409Z" fill="#E1D1C2"/>
<path d="M59.1666 1.79724C59.1571 2.40276 59.635 2.90084 60.2276 2.91061C60.8202 2.92038 61.3077 2.43206 61.3173 1.82654C61.3268 1.22101 60.8489 0.722901 60.2563 0.713135C59.6637 0.713135 59.1762 1.19171 59.1666 1.79724Z" fill="#E1D1C2"/>
<path d="M49.4933 1.67995C49.4837 2.28548 49.9617 2.78355 50.5543 2.79332C51.1469 2.80309 51.6344 2.31477 51.6439 1.70925C51.6535 1.10372 51.1756 0.605614 50.583 0.595847C49.9904 0.586081 49.5029 1.07442 49.4933 1.67995Z" fill="#E1D1C2"/>
<path d="M39.8302 1.56273C39.8207 2.16826 40.2986 2.66637 40.8912 2.67613C41.4838 2.6859 41.9713 2.19756 41.9809 1.59203C41.9904 0.986505 41.5125 0.488426 40.9199 0.47866C40.3177 0.468893 39.8302 0.957206 39.8302 1.56273Z" fill="#E1D1C2"/>
<path d="M30.1569 1.44555C30.1473 2.05107 30.6252 2.54918 31.2178 2.55895C31.8105 2.56871 32.298 2.08037 32.3075 1.47484C32.3171 0.869317 31.8392 0.371239 31.2465 0.361472C30.6444 0.351706 30.1664 0.840019 30.1569 1.44555Z" fill="#E1D1C2"/>
<path d="M20.484 1.31857C20.4745 1.9241 20.9524 2.4222 21.545 2.43197C22.1376 2.44174 22.6251 1.95339 22.6347 1.34787C22.6442 0.742342 22.1663 0.244264 21.5737 0.234497C20.981 0.234497 20.4936 0.713044 20.484 1.31857Z" fill="#E1D1C2"/>
<path d="M10.8107 1.20138C10.8011 1.80691 11.2791 2.30502 11.8717 2.31478C12.4643 2.32455 12.9518 1.83621 12.9613 1.23068C12.9709 0.625155 12.493 0.127076 11.9004 0.11731C11.3077 0.11731 10.8202 0.595856 10.8107 1.20138Z" fill="#E1D1C2"/>
<path d="M1.14711 1.08422C1.13756 1.68974 1.61546 2.18785 2.20808 2.19762C2.8007 2.20738 3.28819 1.71904 3.29775 1.11352C3.3073 0.507989 2.82937 0.00991054 2.23675 0.000143991C1.64413 -0.00962256 1.15667 0.478691 1.14711 1.08422Z" fill="#E1D1C2"/>
<path d="M97.7438 11.0559C97.7342 11.6614 98.2122 12.1595 98.8048 12.1693C99.3974 12.179 99.8849 11.6907 99.8944 11.0852C99.904 10.4796 99.4261 9.98157 98.8335 9.9718C98.2313 9.9718 97.7534 10.4503 97.7438 11.0559Z" fill="#E1D1C2"/>
<path d="M88.0709 10.9387C88.0614 11.5442 88.5393 12.0423 89.132 12.0521C89.7246 12.0619 90.212 11.5735 90.2216 10.968C90.2311 10.3625 89.7532 9.8644 89.1606 9.85464C88.568 9.84487 88.0805 10.3332 88.0709 10.9387Z" fill="#E1D1C2"/>
<path d="M78.3981 10.8215C78.3885 11.427 78.8665 11.9252 79.4591 11.9349C80.0517 11.9447 80.5392 11.4563 80.5487 10.8508C80.5583 10.2453 80.0804 9.74722 79.4878 9.73745C78.8951 9.72768 78.4076 10.216 78.3981 10.8215Z" fill="#E1D1C2"/>
<path d="M68.7345 10.7042C68.725 11.3098 69.2029 11.8078 69.7955 11.8176C70.3881 11.8274 70.8756 11.3391 70.8851 10.7335C70.8947 10.128 70.4168 9.62991 69.8242 9.62014C69.222 9.61037 68.7345 10.0987 68.7345 10.7042Z" fill="#E1D1C2"/>
<path d="M59.0612 10.5871C59.0516 11.1926 59.5295 11.6907 60.1221 11.7004C60.7148 11.7102 61.2023 11.2219 61.2118 10.6164C61.2214 10.0108 60.7435 9.51272 60.1508 9.50295C59.5582 9.49319 59.0707 9.98153 59.0612 10.5871Z" fill="#E1D1C2"/>
<path d="M49.3878 10.4699C49.3783 11.0754 49.8562 11.5735 50.4488 11.5832C51.0414 11.593 51.5289 11.1047 51.5385 10.4992C51.548 9.89364 51.0701 9.39553 50.4775 9.38577C49.8849 9.376 49.3974 9.85458 49.3878 10.4699Z" fill="#E1D1C2"/>
<path d="M39.7248 10.3429C39.7152 10.9484 40.1931 11.4465 40.7857 11.4563C41.3783 11.4661 41.8658 10.9777 41.8754 10.3722C41.8849 9.76669 41.407 9.26858 40.8144 9.25881C40.2122 9.24904 39.7248 9.73739 39.7248 10.3429Z" fill="#E1D1C2"/>
<path d="M30.0514 10.2257C30.0419 10.8313 30.5198 11.3293 31.1124 11.3391C31.705 11.3489 32.1925 10.8606 32.202 10.255C32.2116 9.6495 31.7336 9.15139 31.141 9.14162C30.5484 9.13186 30.061 9.6202 30.0514 10.2257Z" fill="#E1D1C2"/>
<path d="M20.3786 10.1085C20.369 10.714 20.8469 11.2121 21.4396 11.2219C22.0322 11.2317 22.5196 10.7433 22.5292 10.1378C22.5387 9.53228 22.0608 9.0342 21.4682 9.02444C20.8756 9.01467 20.3881 9.50298 20.3786 10.1085Z" fill="#E1D1C2"/>
<path d="M10.715 9.99132C10.7054 10.5969 11.1833 11.095 11.7759 11.1047C12.3686 11.1145 12.8561 10.6261 12.8656 10.0206C12.8752 9.4151 12.3972 8.91702 11.8046 8.90725C11.2024 8.89748 10.715 9.37603 10.715 9.99132Z" fill="#E1D1C2"/>
<path d="M1.04164 9.86435C1.03209 10.4699 1.51002 10.968 2.10264 10.9777C2.69526 10.9875 3.18272 10.4992 3.19228 9.89364C3.20184 9.28812 2.72393 8.79004 2.13131 8.78027C1.53869 8.78027 1.0512 9.25882 1.04164 9.86435Z" fill="#E1D1C2"/>
<path d="M97.6393 19.8458C97.6297 20.4513 98.1076 20.9494 98.7003 20.9592C99.2929 20.969 99.7804 20.4806 99.7899 19.8751C99.7995 19.2696 99.3216 18.7715 98.729 18.7617C98.1364 18.752 97.6489 19.2403 97.6393 19.8458Z" fill="#E1D1C2"/>
<path d="M87.966 19.7286C87.9564 20.3342 88.4343 20.8323 89.0269 20.842C89.6195 20.8518 90.107 20.3635 90.1166 19.7579C90.1262 19.1524 89.6482 18.6543 89.0556 18.6446C88.463 18.6348 87.9755 19.1133 87.966 19.7286Z" fill="#E1D1C2"/>
<path d="M78.3024 19.6017C78.2928 20.2072 78.7707 20.7053 79.3634 20.7151C79.956 20.7248 80.4435 20.2365 80.453 19.6309C80.4626 19.0254 79.9847 18.5273 79.3921 18.5176C78.7899 18.5176 78.3024 18.9961 78.3024 19.6017Z" fill="#E1D1C2"/>
<path d="M68.6295 19.4845C68.62 20.09 69.0979 20.5881 69.6905 20.5979C70.2831 20.6077 70.7706 20.1193 70.7802 19.5138C70.7897 18.9083 70.3118 18.4102 69.7192 18.4004C69.117 18.3906 68.6391 18.879 68.6295 19.4845Z" fill="#E1D1C2"/>
<path d="M58.9562 19.3673C58.9466 19.9728 59.4245 20.4709 60.0172 20.4807C60.6098 20.4905 61.0973 20.0021 61.1068 19.3966C61.1164 18.7911 60.6385 18.293 60.0459 18.2832C59.4532 18.2735 58.9658 18.7618 58.9562 19.3673Z" fill="#E1D1C2"/>
<path d="M49.2829 19.25C49.2733 19.8555 49.7512 20.3536 50.3438 20.3634C50.9364 20.3732 51.4239 19.8848 51.4335 19.2793C51.443 18.6738 50.9651 18.1757 50.3725 18.1659C49.7798 18.1561 49.2924 18.6445 49.2829 19.25Z" fill="#E1D1C2"/>
<path d="M39.6193 19.1231C39.6097 19.7287 40.0877 20.2268 40.6803 20.2365C41.2729 20.2463 41.7604 19.758 41.7699 19.1524C41.7795 18.5469 41.3016 18.0488 40.7089 18.0391C40.1068 18.0391 39.6288 18.5176 39.6193 19.1231Z" fill="#E1D1C2"/>
<path d="M29.9464 19.0059C29.9369 19.6114 30.4148 20.1095 31.0075 20.1192C31.6001 20.129 32.0875 19.6407 32.0971 19.0352C32.1066 18.4296 31.6287 17.9315 31.0361 17.9218C30.4435 17.912 29.956 18.4004 29.9464 19.0059Z" fill="#E1D1C2"/>
<path d="M20.2736 18.8887C20.264 19.4942 20.7419 19.9923 21.3345 20.0021C21.9272 20.0118 22.4147 19.5235 22.4242 18.918C22.4338 18.3125 21.9558 17.8144 21.3632 17.8046C20.7706 17.7948 20.2831 18.2832 20.2736 18.8887Z" fill="#E1D1C2"/>
<path d="M10.61 18.7715C10.6004 19.377 11.0784 19.8751 11.671 19.8849C12.2636 19.8946 12.7511 19.4063 12.7606 18.8008C12.7702 18.1953 12.2923 17.6972 11.6997 17.6874C11.0975 17.6776 10.6196 18.166 10.61 18.7715Z" fill="#E1D1C2"/>
<path d="M0.937153 18.6543C0.927594 19.2598 1.4055 19.7579 1.99812 19.7677C2.59074 19.7775 3.07823 19.2891 3.08779 18.6836C3.09734 18.0781 2.61941 17.58 2.02679 17.5702C1.43417 17.5604 0.946711 18.0488 0.937153 18.6543Z" fill="#E1D1C2"/>
<path d="M97.5338 28.6259C97.5243 29.2314 98.0022 29.7295 98.5948 29.7392C99.1874 29.749 99.6749 29.2607 99.6845 28.6552C99.694 28.0496 99.2161 27.5515 98.6235 27.5418C98.0309 27.532 97.5434 28.0203 97.5338 28.6259Z" fill="#E1D1C2"/>
<path d="M87.8605 28.5087C87.8509 29.1142 88.3288 29.6123 88.9215 29.6221C89.5141 29.6318 90.0016 29.1435 90.0111 28.538C90.0207 27.9325 89.5428 27.4343 88.9502 27.4246C88.3575 27.4148 87.8701 27.9032 87.8605 28.5087Z" fill="#E1D1C2"/>
<path d="M78.1969 28.3915C78.1874 28.997 78.6653 29.4951 79.2579 29.5049C79.8505 29.5146 80.338 29.0263 80.3476 28.4208C80.3571 27.8152 79.8791 27.3172 79.2865 27.3074C78.6844 27.2976 78.1969 27.7859 78.1969 28.3915Z" fill="#E1D1C2"/>
<path d="M68.5241 28.2742C68.5145 28.8797 68.9924 29.3778 69.585 29.3876C70.1777 29.3876 70.6651 28.909 70.6747 28.3035C70.6843 27.698 70.2063 27.1999 69.6137 27.1901C69.0211 27.1706 68.5336 27.6589 68.5241 28.2742Z" fill="#E1D1C2"/>
<path d="M58.8507 28.1473C58.8412 28.7529 59.3191 29.251 59.9117 29.2607C60.5043 29.2705 60.9918 28.7822 61.0014 28.1766C61.0109 27.5711 60.533 27.073 59.9403 27.0633C59.3477 27.0535 58.8603 27.5418 58.8507 28.1473Z" fill="#E1D1C2"/>
<path d="M49.1872 28.0301C49.1776 28.6357 49.6556 29.1338 50.2482 29.1435C50.8408 29.1533 51.3282 28.665 51.3378 28.0594C51.3473 27.4539 50.8694 26.9558 50.2768 26.9461C49.6746 26.9363 49.1872 27.4246 49.1872 28.0301Z" fill="#E1D1C2"/>
<path d="M39.5143 27.913C39.5047 28.5185 39.9826 29.0166 40.5753 29.0264C41.1679 29.0361 41.6554 28.5478 41.6649 27.9423C41.6745 27.3367 41.1966 26.8386 40.604 26.8289C40.0114 26.8191 39.5239 27.3074 39.5143 27.913Z" fill="#E1D1C2"/>
<path d="M29.8414 27.7957C29.8319 28.4012 30.3098 28.8993 30.9024 28.909C31.495 28.9188 31.9825 28.4305 31.9921 27.825C32.0016 27.2194 31.5237 26.7213 30.9311 26.7116C30.3385 26.7018 29.851 27.1901 29.8414 27.7957Z" fill="#E1D1C2"/>
<path d="M20.1779 27.6688C20.1683 28.2743 20.6462 28.7724 21.2388 28.7822C21.8315 28.792 22.3189 28.3036 22.3285 27.6981C22.3381 27.0926 21.8601 26.5945 21.2675 26.5847C20.6653 26.5847 20.1779 27.0633 20.1779 27.6688Z" fill="#E1D1C2"/>
<path d="M10.505 27.5515C10.4955 28.1571 10.9734 28.6551 11.566 28.6649C12.1586 28.6747 12.6461 28.1864 12.6557 27.5808C12.6652 26.9753 12.1873 26.4772 11.5947 26.4674C11.002 26.4577 10.5146 26.946 10.505 27.5515Z" fill="#E1D1C2"/>
<path d="M0.831684 27.4343C0.822126 28.0399 1.30006 28.5379 1.89268 28.5477C2.4853 28.5575 2.97276 28.0692 2.98232 27.4636C2.99187 26.8581 2.51397 26.36 1.92135 26.3502C1.32873 26.3405 0.841242 26.8288 0.831684 27.4343Z" fill="#E1D1C2"/>
<path d="M97.4289 37.406C97.4193 38.0115 97.8972 38.5096 98.4898 38.5194C99.0824 38.5291 99.5699 38.0408 99.5795 37.4353C99.589 36.8297 99.1111 36.3317 98.5185 36.3219C97.9259 36.3219 97.4384 36.8004 97.4289 37.406Z" fill="#E1D1C2"/>
<path d="M87.756 37.2888C87.7464 37.8944 88.2243 38.3924 88.817 38.4022C89.4096 38.412 89.8971 37.9237 89.9066 37.3181C89.9162 36.7126 89.4382 36.2145 88.8456 36.2047C88.253 36.195 87.7656 36.6833 87.756 37.2888Z" fill="#E1D1C2"/>
<path d="M78.0919 37.1716C78.0824 37.7772 78.5603 38.2753 79.153 38.285C79.7456 38.2948 80.233 37.8065 80.2426 37.2009C80.2521 36.5954 79.7742 36.0973 79.1816 36.0875C78.5794 36.0778 78.0919 36.5661 78.0919 37.1716Z" fill="#E1D1C2"/>
<path d="M68.4191 37.0545C68.4095 37.66 68.8875 38.1581 69.4801 38.1678C70.0727 38.1776 70.5602 37.6893 70.5697 37.0838C70.5793 36.4782 70.1014 35.9801 69.5088 35.9704C68.9161 35.9606 68.4286 36.4392 68.4191 37.0545Z" fill="#E1D1C2"/>
<path d="M58.7462 36.9275C58.7367 37.533 59.2146 38.0311 59.8073 38.0409C60.3999 38.0506 60.8873 37.5623 60.8969 36.9568C60.9064 36.3513 60.4285 35.8532 59.8359 35.8434C59.2433 35.8434 58.7558 36.322 58.7462 36.9275Z" fill="#E1D1C2"/>
<path d="M49.0827 36.8102C49.0731 37.4157 49.551 37.9138 50.1436 37.9236C50.7362 37.9333 51.2237 37.445 51.2333 36.8395C51.2429 36.234 50.7649 35.7359 50.1723 35.7261C49.5702 35.7163 49.0922 36.2047 49.0827 36.8102Z" fill="#E1D1C2"/>
<path d="M39.4098 36.693C39.4003 37.2985 39.8782 37.7966 40.4708 37.8064C41.0634 37.8161 41.5509 37.3278 41.5604 36.7223C41.57 36.1168 41.0921 35.6187 40.4995 35.6089C39.9069 35.5991 39.4194 36.0875 39.4098 36.693Z" fill="#E1D1C2"/>
<path d="M29.7365 36.5758C29.7269 37.1813 30.2048 37.6794 30.7974 37.6892C31.3901 37.699 31.8775 37.2106 31.8871 36.6051C31.8967 35.9996 31.4188 35.5015 30.8261 35.4917C30.2335 35.482 29.746 35.9703 29.7365 36.5758Z" fill="#E1D1C2"/>
<path d="M20.0729 36.4586C20.0633 37.0641 20.5413 37.5622 21.1339 37.572C21.7265 37.5818 22.214 37.0934 22.2235 36.4879C22.2331 35.8824 21.7552 35.3843 21.1626 35.3745C20.5699 35.3648 20.0825 35.8531 20.0729 36.4586Z" fill="#E1D1C2"/>
<path d="M10.3996 36.3316C10.39 36.9372 10.8679 37.4353 11.4605 37.445C12.0532 37.4548 12.5406 36.9665 12.5502 36.3609C12.5597 35.7554 12.0818 35.2573 11.4892 35.2476C10.8966 35.2476 10.4091 35.7261 10.3996 36.3316Z" fill="#E1D1C2"/>
<path d="M0.726703 36.2145C0.717145 36.82 1.19505 37.3181 1.78767 37.3279C2.38029 37.3376 2.86778 36.8493 2.87734 36.2438C2.88689 35.6382 2.40896 35.1402 1.81634 35.1304C1.22372 35.1206 0.736262 35.6089 0.726703 36.2145Z" fill="#E1D1C2"/>
<path d="M97.3239 46.1959C97.3143 46.8014 97.7922 47.2995 98.3848 47.3093C98.9775 47.3191 99.4649 46.8307 99.4745 46.2252C99.4841 45.6197 99.0061 45.1216 98.4135 45.1118C97.8209 45.1021 97.3334 45.5904 97.3239 46.1959Z" fill="#E1D1C2"/>
<path d="M87.6598 46.069C87.6503 46.6745 88.1282 47.1726 88.7208 47.1824C89.3135 47.1921 89.8009 46.7038 89.8104 46.0983C89.82 45.4927 89.3421 44.9947 88.7495 44.9849C88.1473 44.9751 87.6598 45.4634 87.6598 46.069Z" fill="#E1D1C2"/>
<path d="M77.987 45.9518C77.9774 46.5573 78.4553 47.0554 79.0479 47.0652C79.6405 47.0749 80.128 46.5866 80.1376 45.9811C80.1471 45.3755 79.6692 44.8775 79.0766 44.8677C78.484 44.8579 77.9965 45.3462 77.987 45.9518Z" fill="#E1D1C2"/>
<path d="M68.3141 45.8346C68.3045 46.4401 68.7825 46.9382 69.3751 46.948C69.9677 46.9578 70.4552 46.4694 70.4647 45.8639C70.4743 45.2584 69.9964 44.7603 69.4038 44.7505C68.8112 44.7407 68.3237 45.2291 68.3141 45.8346Z" fill="#E1D1C2"/>
<path d="M58.6505 45.7174C58.641 46.323 59.1189 46.821 59.7115 46.8308C60.3041 46.8406 60.7916 46.3523 60.8012 45.7467C60.8107 45.1412 60.3328 44.6431 59.7402 44.6333C59.138 44.6236 58.6505 45.1119 58.6505 45.7174Z" fill="#E1D1C2"/>
<path d="M48.9772 45.6002C48.9676 46.2058 49.4455 46.7038 50.0382 46.7136C50.6308 46.7234 51.1183 46.2351 51.1278 45.6295C51.1374 45.024 50.6595 44.5259 50.0669 44.5161C49.4742 44.5064 48.9868 44.9849 48.9772 45.6002Z" fill="#E1D1C2"/>
<path d="M39.3039 45.4732C39.2943 46.0787 39.7722 46.5768 40.3648 46.5865C40.9574 46.5963 41.4449 46.108 41.4545 45.5025C41.464 44.8969 40.9861 44.3988 40.3935 44.3891C39.8008 44.3793 39.3134 44.8676 39.3039 45.4732Z" fill="#E1D1C2"/>
<path d="M29.6408 45.356C29.6312 45.9615 30.1092 46.4596 30.7018 46.4693C31.2944 46.4791 31.7818 45.9908 31.7914 45.3853C31.801 44.7797 31.3231 44.2816 30.7304 44.2719C30.1283 44.2621 29.6408 44.7504 29.6408 45.356Z" fill="#E1D1C2"/>
<path d="M19.9674 45.2388C19.9579 45.8443 20.4358 46.3424 21.0284 46.3522C21.621 46.3619 22.1085 45.8736 22.1181 45.2681C22.1276 44.6625 21.6497 44.1645 21.0571 44.1547C20.4644 44.1449 19.977 44.6332 19.9674 45.2388Z" fill="#E1D1C2"/>
<path d="M10.2946 45.1216C10.285 45.7271 10.7629 46.2252 11.3555 46.235C11.9482 46.2447 12.4356 45.7564 12.4452 45.1509C12.4548 44.5453 11.9768 44.0473 11.3842 44.0375C10.7916 44.0277 10.3041 44.5063 10.2946 45.1216Z" fill="#E1D1C2"/>
<path d="M0.631 45.0044C0.621442 45.6099 1.09938 46.108 1.69199 46.1178C2.28461 46.1276 2.77207 45.6392 2.78163 45.0337C2.79119 44.4282 2.31329 43.9301 1.72067 43.9203C1.11849 43.9105 0.631 44.3891 0.631 45.0044Z" fill="#E1D1C2"/>
<path d="M97.2184 54.9761C97.2088 55.5816 97.6868 56.0797 98.2794 56.0895C98.872 56.0992 99.3595 55.6109 99.369 55.0054C99.3786 54.3998 98.9007 53.9018 98.3081 53.892C97.7155 53.8822 97.228 54.3705 97.2184 54.9761Z" fill="#E1D1C2"/>
<path d="M87.5548 54.8491C87.5453 55.4546 88.0232 55.9527 88.6158 55.9625C89.2084 55.9723 89.6959 55.4839 89.7055 54.8784C89.715 54.2729 89.2371 53.7748 88.6445 53.765C88.0423 53.765 87.5644 54.2436 87.5548 54.8491Z" fill="#E1D1C2"/>
<path d="M77.882 54.7319C77.8724 55.3374 78.3503 55.8355 78.9429 55.8453C79.5356 55.8551 80.0231 55.3667 80.0326 54.7612C80.0422 54.1557 79.5643 53.6576 78.9716 53.6478C78.379 53.6478 77.8915 54.1264 77.882 54.7319Z" fill="#E1D1C2"/>
<path d="M68.2086 54.6147C68.1991 55.2203 68.677 55.7184 69.2696 55.7281C69.8622 55.7379 70.3497 55.2496 70.3593 54.644C70.3688 54.0385 69.8909 53.5404 69.2983 53.5307C68.7057 53.5209 68.2182 54.0092 68.2086 54.6147Z" fill="#E1D1C2"/>
<path d="M58.5451 54.4975C58.5355 55.1031 59.0134 55.6012 59.606 55.6109C60.1986 55.6207 60.6861 55.1324 60.6957 54.5268C60.7053 53.9213 60.2273 53.4232 59.6347 53.4135C59.0421 53.4037 58.5451 53.892 58.5451 54.4975Z" fill="#E1D1C2"/>
<path d="M48.8717 54.3803C48.8622 54.9858 49.3401 55.4839 49.9327 55.4936C50.5253 55.5034 51.0128 55.0151 51.0224 54.4096C51.0319 53.804 50.554 53.3059 49.9613 53.2962C49.3687 53.2864 48.8813 53.7747 48.8717 54.3803Z" fill="#E1D1C2"/>
<path d="M39.1989 54.2631C39.1893 54.8686 39.6673 55.3667 40.2599 55.3765C40.8525 55.3862 41.3399 54.8979 41.3495 54.2924C41.3591 53.6869 40.8812 53.1887 40.2885 53.179C39.6959 53.1692 39.2084 53.6576 39.1989 54.2631Z" fill="#E1D1C2"/>
<path d="M29.5353 54.1361C29.5257 54.7416 30.0036 55.2397 30.5963 55.2495C31.1889 55.2592 31.6764 54.7709 31.6859 54.1654C31.6955 53.5599 31.2176 53.0618 30.625 53.052C30.0228 53.052 29.5449 53.5306 29.5353 54.1361Z" fill="#E1D1C2"/>
<path d="M19.8624 54.0189C19.8529 54.6245 20.3308 55.1225 20.9234 55.1323C21.5161 55.1421 22.0035 54.6538 22.0131 54.0482C22.0226 53.4427 21.5447 52.9446 20.9521 52.9348C20.3595 52.9251 19.872 53.4134 19.8624 54.0189Z" fill="#E1D1C2"/>
<path d="M10.1896 53.9018C10.18 54.5073 10.658 55.0054 11.2506 55.0151C11.8432 55.0249 12.3307 54.5366 12.3402 53.9311C12.3498 53.3255 11.8719 52.8274 11.2793 52.8176C10.6866 52.8079 10.1992 53.2962 10.1896 53.9018Z" fill="#E1D1C2"/>
<path d="M0.525532 53.7845C0.515973 54.3901 0.993878 54.8882 1.5865 54.8979C2.17912 54.9077 2.66661 54.4194 2.67616 53.8138C2.68572 53.2083 2.20779 52.7102 1.61517 52.7005C1.01299 52.6907 0.525532 53.179 0.525532 53.7845Z" fill="#E1D1C2"/>
<path d="M97.1232 63.7562C97.1136 64.3618 97.5915 64.8598 98.1842 64.8696C98.7768 64.8794 99.2643 64.3911 99.2738 63.7855C99.2834 63.18 98.8055 62.6819 98.2129 62.6721C97.6107 62.6624 97.1232 63.1507 97.1232 63.7562Z" fill="#E1D1C2"/>
<path d="M87.4498 63.6391C87.4403 64.2446 87.9182 64.7427 88.5108 64.7524C89.1034 64.7622 89.5909 64.2739 89.6005 63.6684C89.61 63.0628 89.1321 62.5647 88.5395 62.555C87.9469 62.5452 87.4594 63.0335 87.4498 63.6391Z" fill="#E1D1C2"/>
<path d="M77.7765 63.5218C77.7669 64.1274 78.2449 64.6255 78.8375 64.6352C79.4301 64.645 79.9176 64.1567 79.9271 63.5511C79.9367 62.9456 79.4587 62.4475 78.8661 62.4378C78.2735 62.428 77.7861 62.9163 77.7765 63.5218Z" fill="#E1D1C2"/>
<path d="M68.1129 63.3949C68.1034 64.0004 68.5813 64.4985 69.174 64.5083C69.7666 64.518 70.254 64.0297 70.2636 63.4242C70.2731 62.8187 69.7952 62.3206 69.2026 62.3108C68.6004 62.3108 68.1129 62.7894 68.1129 63.3949Z" fill="#E1D1C2"/>
<path d="M58.4401 63.2777C58.4305 63.8832 58.9085 64.3813 59.5011 64.3911C60.0937 64.4009 60.5812 63.9125 60.5907 63.307C60.6003 62.7015 60.1224 62.2034 59.5298 62.1936C58.9371 62.1839 58.4496 62.6722 58.4401 63.2777Z" fill="#E1D1C2"/>
<path d="M48.7672 63.1604C48.7577 63.7659 49.2356 64.264 49.8283 64.2738C50.4209 64.2836 50.9083 63.7952 50.9179 63.1897C50.9274 62.5842 50.4495 62.0861 49.8569 62.0763C49.2643 62.0665 48.7768 62.5549 48.7672 63.1604Z" fill="#E1D1C2"/>
<path d="M39.1037 63.0432C39.0941 63.6487 39.572 64.1468 40.1646 64.1566C40.7572 64.1664 41.2447 63.678 41.2543 63.0725C41.2638 62.467 40.7859 61.9689 40.1933 61.9591C39.5911 61.9494 39.1037 62.4377 39.1037 63.0432Z" fill="#E1D1C2"/>
<path d="M29.4308 62.926C29.4212 63.5316 29.8992 64.0297 30.4918 64.0394C31.0844 64.0492 31.5719 63.5609 31.5814 62.9553C31.591 62.3498 31.1131 61.8517 30.5205 61.8419C29.9279 61.8322 29.4404 62.3108 29.4308 62.926Z" fill="#E1D1C2"/>
<path d="M19.7575 62.7992C19.7479 63.4047 20.2258 63.9028 20.8184 63.9126C21.411 63.9223 21.8985 63.434 21.9081 62.8285C21.9177 62.2229 21.4397 61.7249 20.8471 61.7151C20.2545 61.7151 19.767 62.1936 19.7575 62.7992Z" fill="#E1D1C2"/>
<path d="M10.0939 62.6819C10.0843 63.2874 10.5623 63.7855 11.1549 63.7953C11.7475 63.805 12.235 63.3167 12.2445 62.7112C12.2541 62.1057 11.7762 61.6076 11.1836 61.5978C10.5814 61.588 10.0939 62.0764 10.0939 62.6819Z" fill="#E1D1C2"/>
<path d="M0.421039 62.5647C0.411481 63.1702 0.889415 63.6683 1.48203 63.6781C2.07465 63.6879 2.56211 63.1995 2.57167 62.594C2.58123 61.9885 2.10333 61.4904 1.51071 61.4806C0.918088 61.4708 0.430598 61.9592 0.421039 62.5647Z" fill="#E1D1C2"/>
<path d="M97.0177 72.5361C97.0082 73.1416 97.4861 73.6398 98.0787 73.6495C98.6713 73.6593 99.1588 73.1709 99.1684 72.5654C99.1779 71.9599 98.6999 71.4618 98.1073 71.452C97.5147 71.4423 97.0177 71.9306 97.0177 72.5361Z" fill="#E1D1C2"/>
<path d="M87.3444 72.419C87.3348 73.0245 87.8127 73.5226 88.4053 73.5323C88.998 73.5421 89.4855 73.0538 89.495 72.4483C89.5046 71.8427 89.0266 71.3446 88.434 71.3349C87.8414 71.3251 87.3539 71.8134 87.3444 72.419Z" fill="#E1D1C2"/>
<path d="M77.6715 72.3018C77.662 72.9073 78.1399 73.4054 78.7326 73.4151C79.3252 73.4249 79.8126 72.9366 79.8222 72.3311C79.8317 71.7255 79.3538 71.2274 78.7612 71.2177C78.1686 71.2079 77.6811 71.6962 77.6715 72.3018Z" fill="#E1D1C2"/>
<path d="M68.008 72.1846C67.9984 72.7901 68.4763 73.2882 69.0689 73.298C69.6615 73.3077 70.149 72.8194 70.1586 72.2139C70.1681 71.6084 69.6902 71.1103 69.0976 71.1005C68.4954 71.0907 68.0175 71.5791 68.008 72.1846Z" fill="#E1D1C2"/>
<path d="M58.3351 72.0577C58.3255 72.6633 58.8034 73.1613 59.3961 73.1711C59.9887 73.1809 60.4762 72.6926 60.4857 72.087C60.4953 71.4815 60.0174 70.9834 59.4248 70.9736C58.8322 70.9736 58.3447 71.462 58.3351 72.0577Z" fill="#E1D1C2"/>
<path d="M48.6618 71.9404C48.6522 72.546 49.1301 73.0441 49.7227 73.0538C50.3153 73.0636 50.8028 72.5753 50.8124 71.9697C50.822 71.3642 50.344 70.8661 49.7514 70.8563C49.1588 70.8466 48.6713 71.3349 48.6618 71.9404Z" fill="#E1D1C2"/>
<path d="M38.9987 71.8232C38.9891 72.4288 39.467 72.9269 40.0596 72.9366C40.6523 72.9464 41.1398 72.4581 41.1493 71.8525C41.1589 71.247 40.681 70.7489 40.0883 70.7392C39.4862 70.7294 38.9987 71.2177 38.9987 71.8232Z" fill="#E1D1C2"/>
<path d="M29.3253 71.706C29.3158 72.3116 29.7937 72.8097 30.3863 72.8194C30.9789 72.8292 31.4664 72.3409 31.476 71.7353C31.4855 71.1298 31.0076 70.6317 30.415 70.622C29.8224 70.6122 29.3349 71.1005 29.3253 71.706Z" fill="#E1D1C2"/>
<path d="M19.652 71.5889C19.6424 72.1944 20.1204 72.6925 20.713 72.7023C21.3056 72.712 21.7931 72.2237 21.8026 71.6182C21.8122 71.0126 21.3343 70.5145 20.7417 70.5048C20.149 70.495 19.6616 70.9833 19.652 71.5889Z" fill="#E1D1C2"/>
<path d="M9.98891 71.4717C9.97935 72.0772 10.4573 72.5753 11.0499 72.5851C11.6425 72.5948 12.13 72.1065 12.1395 71.501C12.1491 70.8955 11.6712 70.3974 11.0785 70.3876C10.4764 70.3778 9.98891 70.8564 9.98891 71.4717Z" fill="#E1D1C2"/>
<path d="M0.315571 71.3447C0.306012 71.9502 0.783917 72.4483 1.37654 72.4581C1.96915 72.4679 2.45665 71.9795 2.4662 71.374C2.47576 70.7685 1.99783 70.2704 1.40521 70.2606C0.812591 70.2509 0.325129 70.7392 0.315571 71.3447Z" fill="#E1D1C2"/>
<path d="M96.9123 81.3262C96.9027 81.9317 97.3807 82.4298 97.9733 82.4396C98.5659 82.4493 99.0533 81.961 99.0629 81.3555C99.0724 80.7499 98.5945 80.2519 98.0019 80.2421C97.4093 80.2323 96.9218 80.7206 96.9123 81.3262Z" fill="#E1D1C2"/>
<path d="M87.2394 81.2092C87.2298 81.8147 87.7078 82.3128 88.3004 82.3226C88.893 82.3226 89.3805 81.844 89.39 81.2385C89.3996 80.633 88.9217 80.1348 88.3291 80.1251C87.7364 80.1055 87.249 80.5939 87.2394 81.2092Z" fill="#E1D1C2"/>
<path d="M77.5758 81.082C77.5663 81.6875 78.0442 82.1857 78.6368 82.1954C79.2294 82.2052 79.7169 81.7168 79.7265 81.1113C79.736 80.5058 79.2581 80.0077 78.6655 79.9979C78.0633 79.9882 77.5758 80.4765 77.5758 81.082Z" fill="#E1D1C2"/>
<path d="M67.903 80.9649C67.8934 81.5704 68.3713 82.0685 68.9639 82.0782C69.5566 82.088 70.044 81.5997 70.0536 80.9942C70.0632 80.3886 69.5853 79.8905 68.9926 79.8808C68.4 79.871 67.9125 80.3593 67.903 80.9649Z" fill="#E1D1C2"/>
<path d="M58.2296 80.8477C58.2201 81.4532 58.698 81.9513 59.2906 81.961C59.8832 81.9708 60.3707 81.4825 60.3803 80.877C60.3898 80.2714 59.9119 79.7733 59.3193 79.7636C58.7267 79.7538 58.2392 80.2421 58.2296 80.8477Z" fill="#E1D1C2"/>
<path d="M48.5665 80.7305C48.557 81.336 49.0349 81.8341 49.6275 81.8439C50.2201 81.8536 50.7076 81.3653 50.7172 80.7598C50.7267 80.1543 50.2488 79.6562 49.6562 79.6464C49.054 79.6366 48.5665 80.125 48.5665 80.7305Z" fill="#E1D1C2"/>
<path d="M38.8932 80.6036C38.8836 81.2092 39.3616 81.7072 39.9542 81.717C40.5468 81.7268 41.0343 81.2385 41.0438 80.6329C41.0534 80.0274 40.5754 79.5293 39.9828 79.5195C39.3806 79.5195 38.9028 79.9981 38.8932 80.6036Z" fill="#E1D1C2"/>
<path d="M29.2199 80.4863C29.2103 81.0919 29.6882 81.59 30.2808 81.5997C30.8735 81.6095 31.3609 81.1212 31.3705 80.5156C31.3801 79.9101 30.9021 79.412 30.3095 79.4022C29.7169 79.3925 29.2294 79.8808 29.2199 80.4863Z" fill="#E1D1C2"/>
<path d="M19.547 80.3691C19.5375 80.9747 20.0154 81.4728 20.608 81.4825C21.2006 81.4923 21.6881 81.004 21.6976 80.3984C21.7072 79.7929 21.2293 79.2948 20.6367 79.2851C20.044 79.2753 19.5566 79.7636 19.547 80.3691Z" fill="#E1D1C2"/>
<path d="M9.88344 80.2519C9.87388 80.8575 10.3518 81.3556 10.9444 81.3653C11.5371 81.3751 12.0245 80.8868 12.0341 80.2812C12.0436 79.6757 11.5657 79.1776 10.9731 79.1679C10.3805 79.1581 9.893 79.6464 9.88344 80.2519Z" fill="#E1D1C2"/>
<path d="M0.210102 80.1348C0.200543 80.7403 0.678477 81.2384 1.2711 81.2482C1.86371 81.2579 2.35118 80.7696 2.36073 80.1641C2.37029 79.5585 1.89239 79.0605 1.29977 79.0507C0.707151 79.0409 0.21966 79.5195 0.210102 80.1348Z" fill="#E1D1C2"/>
<path d="M96.8078 90.1064C96.7982 90.712 97.2761 91.2101 97.8687 91.2198C98.4613 91.2296 98.9488 90.7413 98.9584 90.1357C98.9679 89.5302 98.49 89.0321 97.8974 89.0224C97.3048 89.0126 96.8173 89.5009 96.8078 90.1064Z" fill="#E1D1C2"/>
<path d="M87.1344 89.9892C87.1249 90.5948 87.6028 91.0929 88.1954 91.1026C88.788 91.1124 89.2755 90.6241 89.2851 90.0185C89.2946 89.413 88.8167 88.9149 88.2241 88.9052C87.6315 88.8954 87.144 89.3837 87.1344 89.9892Z" fill="#E1D1C2"/>
<path d="M77.4708 89.8621C77.4613 90.4677 77.9392 90.9658 78.5318 90.9756C79.1244 90.9853 79.6119 90.497 79.6215 89.8914C79.631 89.2859 79.1531 88.7878 78.5605 88.7781C77.9583 88.7781 77.4708 89.2566 77.4708 89.8621Z" fill="#E1D1C2"/>
<path d="M67.7975 89.7449C67.7879 90.3504 68.2659 90.8485 68.8585 90.8583C69.4511 90.868 69.9386 90.3797 69.9481 89.7742C69.9577 89.1686 69.4798 88.6706 68.8872 88.6608C68.2946 88.651 67.8071 89.1393 67.7975 89.7449Z" fill="#E1D1C2"/>
<path d="M58.1247 89.6277C58.1151 90.2332 58.593 90.7313 59.1856 90.7411C59.7782 90.7508 60.2657 90.2625 60.2753 89.657C60.2848 89.0514 59.8069 88.5534 59.2143 88.5436C58.6216 88.5338 58.1342 89.0221 58.1247 89.6277Z" fill="#E1D1C2"/>
<path d="M48.4611 89.5105C48.4515 90.116 48.9295 90.6141 49.5221 90.6239C50.1147 90.6337 50.6022 90.1453 50.6117 89.5398C50.6213 88.9343 50.1434 88.4362 49.5507 88.4264C48.9486 88.4166 48.4611 88.905 48.4611 89.5105Z" fill="#E1D1C2"/>
<path d="M38.7877 89.3933C38.7782 89.9989 39.2561 90.4969 39.8488 90.5067C40.4414 90.5165 40.9288 90.0282 40.9384 89.4226C40.9479 88.8171 40.47 88.319 39.8774 88.3092C39.2848 88.2995 38.7973 88.778 38.7877 89.3933Z" fill="#E1D1C2"/>
<path d="M29.1149 89.2664C29.1053 89.8719 29.5833 90.37 30.1759 90.3797C30.7685 90.3895 31.256 89.9012 31.2655 89.2957C31.2751 88.6901 30.7972 88.192 30.2046 88.1823C29.6119 88.1725 29.1244 88.6608 29.1149 89.2664Z" fill="#E1D1C2"/>
<path d="M19.4513 89.1492C19.4418 89.7547 19.9197 90.2528 20.5123 90.2626C21.1049 90.2723 21.5924 89.784 21.6019 89.1785C21.6115 88.573 21.1336 88.0749 20.541 88.0651C19.9388 88.0553 19.4513 88.5437 19.4513 89.1492Z" fill="#E1D1C2"/>
<path d="M9.77846 89.032C9.7689 89.6375 10.2468 90.1356 10.8394 90.1454C11.432 90.1551 11.9195 89.6668 11.9291 89.0613C11.9387 88.4558 11.4607 87.9577 10.8681 87.9479C10.2755 87.9381 9.78802 88.4265 9.77846 89.032Z" fill="#E1D1C2"/>
<path d="M0.10561 88.9148C0.0960513 89.5203 0.573956 90.0184 1.16657 90.0282C1.75919 90.038 2.24668 89.5496 2.25624 88.9441C2.2658 88.3386 1.78787 87.8405 1.19525 87.8307C0.60263 87.8209 0.115168 88.3093 0.10561 88.9148Z" fill="#E1D1C2"/>
<path d="M96.7023 98.8867C96.6927 99.4923 97.1706 99.9903 97.7633 100C98.3559 100.01 98.8434 99.5216 98.8529 98.916C98.8625 98.3105 98.3846 97.8124 97.792 97.8026C97.1993 97.7929 96.7118 98.2812 96.7023 98.8867Z" fill="#E1D1C2"/>
<path d="M87.0387 98.7695C87.0292 99.375 87.5071 99.8732 88.0997 99.8829C88.6923 99.8927 89.1798 99.4044 89.1893 98.7988C89.1989 98.1933 88.7209 97.6952 88.1283 97.6854C87.5261 97.6757 87.0387 98.164 87.0387 98.7695Z" fill="#E1D1C2"/>
<path d="M77.3654 98.6521C77.3558 99.2576 77.8337 99.7557 78.4263 99.7655C79.019 99.7655 79.5064 99.2869 79.516 98.6814C79.5256 98.0759 79.0476 97.5778 78.455 97.568C77.8528 97.5582 77.3749 98.0466 77.3654 98.6521Z" fill="#E1D1C2"/>
<path d="M67.6925 98.5349C67.683 99.1404 68.1609 99.6385 68.7535 99.6483C69.3461 99.6581 69.8336 99.1697 69.8432 98.5642C69.8527 97.9587 69.3748 97.4606 68.7821 97.4508C68.1895 97.4411 67.7021 97.9294 67.6925 98.5349Z" fill="#E1D1C2"/>
<path d="M58.0197 98.408C58.0101 99.0136 58.4881 99.5117 59.0807 99.5214C59.6733 99.5312 60.1607 99.0429 60.1703 98.4373C60.1799 97.8318 59.702 97.3337 59.1093 97.324C58.5167 97.324 58.0292 97.8025 58.0197 98.408Z" fill="#E1D1C2"/>
<path d="M48.3556 98.2908C48.3461 98.8963 48.824 99.3944 49.4166 99.4042C50.0092 99.4139 50.4967 98.9256 50.5062 98.3201C50.5158 97.7145 50.0379 97.2165 49.4453 97.2067C48.8527 97.1969 48.3652 97.6852 48.3556 98.2908Z" fill="#E1D1C2"/>
<path d="M38.6832 98.1736C38.6737 98.7791 39.1516 99.2772 39.7442 99.287C40.3368 99.2967 40.8243 98.8084 40.8339 98.2029C40.8434 97.5973 40.3655 97.0993 39.7729 97.0895C39.1803 97.0797 38.6928 97.568 38.6832 98.1736Z" fill="#E1D1C2"/>
<path d="M29.0192 98.0564C29.0096 98.6619 29.4875 99.16 30.0801 99.1698C30.6728 99.1796 31.1603 98.6912 31.1698 98.0857C31.1794 97.4802 30.7015 96.9821 30.1089 96.9723C29.5067 96.9625 29.0192 97.4509 29.0192 98.0564Z" fill="#E1D1C2"/>
<path d="M19.3463 97.9295C19.3368 98.5351 19.8147 99.0332 20.4073 99.0429C20.9999 99.0527 21.4874 98.5644 21.497 97.9588C21.5065 97.3533 21.0286 96.8552 20.436 96.8455C19.8338 96.8455 19.3559 97.324 19.3463 97.9295Z" fill="#E1D1C2"/>
<path d="M9.67348 97.8123C9.66392 98.4178 10.1419 98.9159 10.7345 98.9256C11.3271 98.9354 11.8146 98.4471 11.8241 97.8416C11.8337 97.236 11.3558 96.7379 10.7631 96.7282C10.1705 96.7184 9.68304 97.2067 9.67348 97.8123Z" fill="#E1D1C2"/>
<path d="M0.000140913 97.6951C-0.00941745 98.3006 0.468516 98.7987 1.06113 98.8085C1.65375 98.8182 2.14122 98.3299 2.15077 97.7244C2.16033 97.1189 1.68243 96.6208 1.08981 96.611C0.49719 96.6012 0.00969928 97.0896 0.000140913 97.6951Z" fill="#E1D1C2"/>
</svg>
